{
  "accessors": [
    {
      "bufferView": 2,
      "componentType": 5126,
      "count": 2966,
      "max": [
        0.23319344222545624,
        0.016633108258247375,
        0.7907971143722534
      ],
      "min": [
        -0.134709432721138,
        -0.050823140889406204,
        -0.21608701348304749
      ],
      "type": "VEC3"
    },
    {
      "bufferView": 2,
      "byteOffset": 35592,
      "componentType": 5126,
      "count": 2966,
      "max": [
        1.0,
        1.0,
        1.0
      ],
      "min": [
        -1.0,
        -1.0,
        -1.0
      ],
      "type": "VEC3"
    },
    {
      "bufferView": 3,
      "componentType": 5126,
      "count": 2966,
      "max": [
        0.9995431303977966,
        1.0,
        0.999975323677063,
        1.0
      ],
      "min": [
        -0.9998603463172913,
        -1.0,
        -1.0,
        -1.0
      ],
      "type": "VEC4"
    },
    {
      "bufferView": 1,
      "componentType": 5126,
      "count": 2966,
      "max": [
        0.990398645401001,
        0.9912203550338745
      ],
      "min": [
        0.0028230566531419754,
        0.0046979039907455444
      ],
      "type": "VEC2"
    },
    {
      "bufferView": 1,
      "byteOffset": 23728,
      "componentType": 5126,
      "count": 2966,
      "max": [
        0.990398645401001,
        0.9912203550338745
      ],
      "min": [
        0.0028230566531419754,
        0.0046979039907455444
      ],
      "type": "VEC2"
    },
    {
      "bufferView": 0,
      "componentType": 5125,
      "count": 6972,
      "type": "SCALAR"
    }
  ],
  "asset": {
    "extras": {
      "author": "buzzkirill (https://sketchfab.com/buzzkirill)",
      "license": "SKETCHFAB Standard (https://sketchfab.com/licenses)",
      "source": "https://sketchfab.com/3d-models/simple-electric-guitar-jackson-flying-v-style-180e6c911dd5419c8f7e0dcb281dce5c",
      "title": "Simple electric guitar, Jackson Flying V style"
    },
    "generator": "Sketchfab-16.41.0",
    "version": "2.0"
  },
  "bufferViews": [
    {
      "buffer": 0,
      "byteLength": 27888,
      "name": "floatBufferViews",
      "target": 34963
    },
    {
      "buffer": 0,
      "byteLength": 47456,
      "byteOffset": 27888,
      "byteStride": 8,
      "name": "floatBufferViews",
      "target": 34962
    },
    {
      "buffer": 0,
      "byteLength": 71184,
      "byteOffset": 75344,
      "byteStride": 12,
      "name": "floatBufferViews",
      "target": 34962
    },
    {
      "buffer": 0,
      "byteLength": 47456,
      "byteOffset": 146528,
      "byteStride": 16,
      "name": "floatBufferViews",
      "target": 34962
    }
  ],
  "buffers": [
    {
      "byteLength": 193984,
      "uri": "scene.bin"
    }
  ],
  "images": [
    {
      "uri": "textures/JacksonV_simple_baseColor.png"
    },
    {
      "uri": "textures/JacksonV_simple_metallicRoughness.png"
    },
    {
      "uri": "textures/JacksonV_simple_normal.png"
    }
  ],
  "materials": [
    {
      "doubleSided": true,
      "name": "JacksonV_simple",
      "normalTexture": {
        "index": 2
      },
      "pbrMetallicRoughness": {
        "baseColorTexture": {
          "index": 0
        },
        "metallicRoughnessTexture": {
          "index": 1
        }
      }
    }
  ],
  "meshes": [
    {
      "name": "JacksonV_JacksonV_simple_0",
      "primitives": [
        {
          "attributes": {
            "NORMAL": 1,
            "POSITION": 0,
            "TANGENT": 2,
            "TEXCOORD_0": 3,
            "TEXCOORD_1": 4
          },
          "indices": 5,
          "material": 0,
          "mode": 4
        }
      ]
    }
  ],
  "nodes": [
    {
      "children": [
        1
      ],
      "matrix": [
        1.0,
        0.0,
        0.0,
        0.0,
        0.0,
        2.220446049250313e-16,
        -1.0,
        0.0,
        0.0,
        1.0,
        2.220446049250313e-16,
        0.0,
        0.0,
        0.0,
        0.0,
        1.0
      ],
      "name": "Sketchfab_model"
    },
    {
      "children": [
        2
      ],
      "matrix": [
        1.0,
        0.0,
        0.0,
        0.0,
        0.0,
        0.0,
        1.0,
        0.0,
        0.0,
        -1.0,
        0.0,
        0.0,
        0.0,
        0.0,
        0.0,
        1.0
      ],
      "name": "JacksonV.fbx"
    },
    {
      "children": [
        3
      ],
      "name": "RootNode"
    },
    {
      "children": [
        4
      ],
      "matrix": [
        1.0,
        0.0,
        0.0,
        0.0,
        0.0,
        -1.6292067939183141e-07,
        -0.9999999999999868,
        0.0,
        0.0,
        0.9999999999999868,
        -1.6292067939183141e-07,
        0.0,
        0.0,
        0.0,
        0.0,
        1.0
      ],
      "name": "JacksonV"
    },
    {
      "mesh": 0,
      "name": "JacksonV_JacksonV_simple_0"
    }
  ],
  "samplers": [
    {
      "magFilter": 9729,
      "minFilter": 9987,
      "wrapS": 10497,
      "wrapT": 10497
    }
  ],
  "scene": 0,
  "scenes": [
    {
      "name": "Sketchfab_Scene",
      "nodes": [
        0
      ]
    }
  ],
  "textures": [
    {
      "sampler": 0,
      "source": 0
    },
    {
      "sampler": 0,
      "source": 1
    },
    {
      "sampler": 0,
      "source": 2
    }
  ]
}
